<svg width="521" height="484" viewBox="0 0 521 484" fill="#fff" xmlns="http://www.w3.org/2000/svg">
<path d="M26.0338 450.125L106.555 245.171C109.117 238.651 108.69 231.483 105.374 225.322L3.87262 36.7413C-7.01883 16.506 15.5177 -5.5587 38.1704 3.16163L247.788 83.8554C255.465 86.811 264.226 86.3883 271.609 82.7062L429.257 4.08827C449.589 -6.05125 473.072 10.6581 467.419 31.2426L413.827 226.399C412.289 232 412.862 237.893 415.453 243.11L517.142 447.861C527.562 468.841 503.177 490.436 480.801 480.045L273.006 383.544C264.817 379.741 255.056 379.976 246.992 384.169L63.8343 479.409C42.374 490.568 17.6652 471.426 26.0338 450.125Z" stroke="none" fill="#707070"/>
</svg>
